<svg width="64" height="64" viewBox="0 0 64 64" fill="none" xmlns="http://www.w3.org/2000/svg">
<rect width="64" height="64" rx="32" fill="#6D28D9"/>
<path d="M31.6232 14C23.3161 14 19.1614 14 16.5818 16.6119C14.0022 19.2238 14 23.4246 14 31.8286V45.2C14 47.3016 14 48.3512 14.6454 49.0042C15.2909 49.6572 16.3285 49.6572 18.4058 49.6572H31.6232C39.9303 49.6572 44.085 49.6572 46.6646 47.0453C49.2442 44.4334 49.2464 40.2325 49.2464 31.8286" stroke="white" stroke-width="4"/>
<path d="M20.6087 39.0715H42.9131M20.6087 30.7144H35.1065" stroke="white" stroke-width="4" stroke-linecap="round" stroke-linejoin="round"/>
<path d="M44.4073 9.10525C44.2825 9.03618 44.1424 8.99996 44 8.99996C43.8576 8.99996 43.7175 9.03618 43.5927 9.10525L35.5884 13.542L44 18.2048L52.4116 13.542L44.4073 9.10525ZM53 15.1528L44.8438 19.6743V29L52.5635 24.7203C52.6957 24.6471 52.806 24.5396 52.8828 24.4089C52.9595 24.2783 53 24.1294 53 23.9777V15.1528ZM43.1562 29V19.6743L35 15.1528V23.9777C35 24.1294 35.0405 24.2783 35.1172 24.4089C35.194 24.5396 35.3043 24.6471 35.4365 24.7203L43.1562 29Z" fill="white"/>
</svg>
